<!-- Generated by IcoMoon.io -->
<svg version="1.1" xmlns="http://www.w3.org/2000/svg" width="32" height="32" viewBox="0 0 32 32">
<title>Logo</title>
<path fill="#afb1b8" d="M11.472 9.121l2.116 2.003-3.927-0.002v9.717h10.264v-3.715l2.113 2v-10.003h-10.566zM19.832 16.888l-5.998-5.679h5.998v5.679zM17.969 19.417h-6.685v-6.535h0.473v6.093h6.212v0.443zM12.863 22.132h0.206l-0.36 0.678v0.395h-0.187v-0.395l-0.36-0.678h0.207l0.247 0.509 0.247-0.509zM13.173 23.205l0.087-0.25h0.416l0.088 0.25h0.195l-0.406-1.073h-0.167l-0.405 1.073h0.194zM13.468 22.36l0.155 0.445h-0.311l0.156-0.445zM14.451 22.779c-0.027 0.041-0.041 0.087-0.041 0.136 0 0.090 0.032 0.164 0.095 0.22s0.149 0.084 0.255 0.084 0.198-0.029 0.274-0.086l0.060 0.072h0.208l-0.158-0.186c0.062-0.085 0.093-0.193 0.093-0.325h-0.155c0 0.072-0.015 0.138-0.045 0.197l-0.207-0.245 0.073-0.053c0.052-0.037 0.089-0.075 0.111-0.112s0.034-0.079 0.034-0.124c0-0.068-0.025-0.125-0.075-0.17s-0.114-0.069-0.192-0.069c-0.086 0-0.155 0.025-0.206 0.074s-0.077 0.115-0.077 0.199c0 0.034 0.008 0.070 0.024 0.107s0.046 0.082 0.088 0.134c-0.080 0.057-0.133 0.106-0.16 0.148zM14.936 23.016c-0.053 0.040-0.109 0.060-0.169 0.060-0.054 0-0.096-0.015-0.128-0.046s-0.048-0.071-0.048-0.121c0-0.057 0.030-0.109 0.088-0.153l0.023-0.016 0.234 0.276zM14.743 22.541l0.082-0.056 0.023-0.018c0.030-0.027 0.046-0.062 0.046-0.104 0-0.028-0.011-0.052-0.032-0.072s-0.048-0.030-0.080-0.030c-0.035 0-0.063 0.012-0.083 0.035s-0.031 0.053-0.031 0.089c0 0.041 0.025 0.093 0.076 0.155zM16.49 23.124c-0.074 0.064-0.172 0.096-0.294 0.096-0.085 0-0.161-0.020-0.226-0.060s-0.115-0.099-0.15-0.173-0.054-0.161-0.055-0.26v-0.1c0-0.101 0.018-0.19 0.054-0.268s0.087-0.137 0.154-0.178c0.067-0.042 0.145-0.063 0.233-0.063 0.118 0 0.214 0.032 0.286 0.097s0.114 0.155 0.126 0.273h-0.186c-0.009-0.077-0.031-0.133-0.068-0.167s-0.089-0.052-0.158-0.052c-0.081 0-0.143 0.030-0.187 0.089s-0.065 0.146-0.066 0.26v0.095c0 0.116 0.021 0.204 0.062 0.265s0.103 0.091 0.183 0.091c0.073 0 0.128-0.016 0.165-0.049s0.060-0.088 0.070-0.164h0.186c-0.011 0.114-0.053 0.204-0.127 0.268zM17.586 22.974c0.036-0.080 0.055-0.172 0.055-0.277v-0.060c-0-0.105-0.019-0.196-0.056-0.275s-0.089-0.14-0.157-0.181c-0.067-0.042-0.145-0.063-0.232-0.063s-0.165 0.021-0.233 0.064c-0.067 0.042-0.12 0.103-0.157 0.184s-0.055 0.172-0.055 0.277v0.060c0 0.103 0.019 0.193 0.056 0.272s0.090 0.139 0.158 0.182c0.068 0.042 0.146 0.063 0.233 0.063s0.166-0.021 0.233-0.063c0.068-0.043 0.12-0.104 0.156-0.183zM17.386 22.367c0.045 0.063 0.068 0.154 0.068 0.273v0.056c0 0.121-0.022 0.213-0.067 0.276s-0.108 0.094-0.19 0.094c-0.082 0-0.145-0.032-0.192-0.097s-0.069-0.155-0.069-0.273v-0.062c0.001-0.115 0.024-0.205 0.069-0.268s0.109-0.095 0.189-0.095c0.083 0 0.146 0.032 0.191 0.095z"></path>
</svg>
